<?xml version="1.0" encoding="UTF-8" standalone="no"?>
<svg width="394px" height="55px" viewBox="0 0 394 55" version="1.1" xmlns="http://www.w3.org/2000/svg" xmlns:xlink="http://www.w3.org/1999/xlink">
    <!-- Generator: Sketch 3.8.3 (29802) - http://www.bohemiancoding.com/sketch -->
    <title>Slice 1</title>
    <desc>Created with Sketch.</desc>
    <defs></defs>
    <g id="Page-1" stroke="none" stroke-width="1" fill="none" fill-rule="evenodd">
        <path d="M74.8391784,32.8585597 L79.9606584,32.8585597 L79.9606584,41.7742197 L88.6253144,32.8585597 L94.9610984,32.8585597 L85.8356184,42.4583967 C86.6233144,43.4939637 88.0785864,45.4245417 90.2021624,48.2521977 C92.3242824,51.0784757 93.9098664,53.1861267 94.9610984,54.5737727 L88.9878584,54.5737727 L82.2582264,45.9991677 L79.9606584,48.4223807 L79.9606584,54.5737727 L74.8391784,54.5737727 L74.8391784,32.8585597 L74.8391784,32.8585597 Z" id="Fill-2" fill="#4C566C"></path>
        <path d="M107.565035,39.3206218 L104.674875,45.6263498 L110.420979,45.6263498 L107.565035,39.3206218 Z M114.490499,54.5737038 L112.358187,49.8823028 L102.739123,49.8823028 L100.606083,54.5737038 L95.1577312,54.5737038 L105.070179,32.8584908 L110.025675,32.8584908 L119.939579,54.5737038 L114.490499,54.5737038 Z" id="Fill-4" fill="#4C566C"></path>
        <polygon id="Fill-6" fill="#4C566C" points="122.598672 54.573566 127.718696 54.573566 127.718696 32.858353 122.598672 32.858353"></polygon>
        <polygon id="Fill-8" fill="#4C566C" points="132.049786 54.5734971 132.049786 51.2497611 144.064698 37.0529161 132.44509 37.0529161 132.44509 32.8582841 151.055682 32.8582841 151.055682 36.2137141 139.074986 50.3485491 151.253698 50.3485491 151.253698 54.5734971"></polygon>
        <polygon id="Fill-9" fill="#4C566C" points="172.260357 32.8585597 172.260357 37.1772117 160.838037 37.1772117 160.838037 41.6501997 171.111573 41.6501997 171.111573 45.7821327 160.838037 45.7821327 160.838037 50.2868147 172.620717 50.2868147 172.620717 54.5737727 155.716557 54.5737727 155.716557 32.8585597"></polygon>
        <polygon id="Fill-10" fill="#4C566C" points="193.234474 32.8585597 198.354498 32.8585597 198.354498 54.5737727 193.234474 54.5737727 182.303554 40.9667117 182.303554 54.5737727 177.182074 54.5737727 177.182074 32.8585597 181.976682 32.8585597 193.234474 46.8383697"></polygon>
        <path d="M226.106076,43.7163729 C226.882124,42.9391809 227.272332,41.8009529 227.272332,40.2989329 C227.272332,38.7976019 226.779476,37.7358529 225.79522,37.1150639 C224.810236,36.4935859 223.268332,36.1828469 221.167324,36.1828469 L217.228844,36.1828469 L217.228844,44.8814719 L221.724244,44.8814719 C223.870388,44.8814719 225.330028,44.4928759 226.106076,43.7163729 M228.847724,34.7538609 C230.444956,36.0167979 231.2443,37.9639119 231.2443,40.5938249 C231.2443,43.2244269 230.428212,45.1501819 228.79822,46.3724679 C227.168228,47.5947539 224.667548,48.2052079 221.298364,48.2052079 L217.228844,48.2052079 L217.228844,54.5736349 L213.352972,54.5736349 L213.352972,32.8584219 L221.232844,32.8584219 C224.711228,32.8584219 227.249764,33.4902349 228.847724,34.7538609" id="Fill-11" fill="#4C566C"></path>
        <polygon id="Fill-12" fill="#4C566C" points="235.805366 54.5734971 235.805366 32.8582841 239.679054 32.8582841 239.679054 51.0940471 250.149878 51.0940471 250.149878 54.5734971"></polygon>
        <path d="M267.546602,46.2483101 L263.378074,37.3016451 L259.209546,46.2483101 L267.546602,46.2483101 Z M257.634154,49.6340561 L255.335858,54.5734971 L251.20009,54.5734971 L261.309826,32.8582841 L265.445594,32.8582841 L275.55533,54.5734971 L271.419562,54.5734971 L269.122722,49.6340561 L257.634154,49.6340561 Z" id="Fill-13" fill="#4C566C"></path>
        <polygon id="Fill-14" fill="#4C566C" points="285.599474 36.2134385 285.599474 54.5732215 281.726514 54.5732215 281.726514 36.2134385 274.767562 36.2134385 274.767562 32.8586975 292.559882 32.8586975 292.559882 36.2134385"></polygon>
        <polygon id="Fill-15" fill="#4C566C" points="300.632965 36.2759997 300.632965 42.2406727 310.808221 42.2406727 310.808221 45.6264187 300.632965 45.6264187 300.632965 54.5737727 296.759277 54.5737727 296.759277 32.8585597 312.054557 32.8585597 312.021797 36.2759997"></polygon>
        <path d="M332.947866,37.9843752 C331.382666,36.4520392 329.462202,35.6858712 327.186474,35.6858712 C324.910018,35.6858712 322.990282,36.4520392 321.42581,37.9843752 C319.86061,39.5180892 319.078738,41.3763222 319.078738,43.5611412 C319.078738,45.7466492 319.86061,47.6048822 321.42581,49.1372182 C322.990282,50.6702432 324.910018,51.4357222 327.186474,51.4357222 C329.462202,51.4357222 331.382666,50.6702432 332.947866,49.1372182 C334.51161,47.6048822 335.293482,45.7466492 335.293482,43.5611412 C335.293482,41.3763222 334.51161,39.5180892 332.947866,37.9843752 M335.787066,51.5762782 C333.46693,53.7197572 330.600066,54.7911522 327.186474,54.7911522 C323.77361,54.7911522 320.906018,53.7197572 318.58661,51.5762782 C316.26793,49.4321102 315.108226,46.7608572 315.108226,43.5611412 C315.108226,40.3607362 316.26793,37.6894832 318.58661,35.5460042 C320.906018,33.4025252 323.77361,32.3304412 327.186474,32.3304412 C330.600066,32.3304412 333.46693,33.4025252 335.787066,35.5460042 C338.106474,37.6894832 339.26545,40.3607362 339.26545,43.5611412 C339.26545,46.7608572 338.106474,49.4321102 335.787066,51.5762782" id="Fill-16" fill="#4C566C"></path>
        <path d="M357.31883,42.9863774 C358.106526,42.3442294 358.50183,41.3141744 358.50183,39.8955234 C358.50183,38.4768724 358.095606,37.5033154 357.28607,36.9748524 C356.476534,36.4470784 355.030726,36.1825024 352.953742,36.1825024 L348.02955,36.1825024 L348.02955,43.9489104 L352.854734,43.9489104 C355.043102,43.9489104 356.531134,43.6285254 357.31883,42.9863774 M362.47307,39.9099924 C362.47307,43.4934814 360.82051,45.7513344 357.516118,46.6828624 L363.523574,54.5732904 L358.60011,54.5732904 L353.116086,47.2733354 L348.02955,47.2733354 L348.02955,54.5732904 L344.157318,54.5732904 L344.157318,32.8587664 L352.690934,32.8587664 C356.191158,32.8587664 358.69839,33.4182344 360.208262,34.5364814 C361.717406,35.6547284 362.47307,37.4461284 362.47307,39.9099924" id="Fill-17" fill="#4C566C"></path>
        <polygon id="Fill-18" fill="#4C566C" points="371.926442 54.5734971 368.052754 54.5734971 368.052754 32.8582841 374.09297 32.8582841 381.016978 46.4963501 387.943898 32.8582841 393.94917 32.8582841 393.94917 54.5734971 390.077666 54.5734971 390.077666 37.6116951 382.068938 52.6787471 379.900954 52.6787471 371.926442 37.6116951"></polygon>
        <polygon id="Fill-19" fill="#4C566C" points="0.03332 54.573566 57.620304 54.573566 57.620304 43.673586 0.03332 43.673586"></polygon>
        <polygon id="Fill-20" fill="#88E18E" points="40.343408 5.522278 57.620304 5.522278 57.620304 0.072288 40.343408 0.072288"></polygon>
        <polygon id="Fill-21" fill="#88E18E" points="51.861824 16.422258 57.620304 16.422258 57.620304 0.072288 51.861824 0.072288"></polygon>
        <polygon id="Fill-22" fill="#88E18E" points="25.7773656 34.2076906 55.4688456 6.1068256 51.3971416 2.2525596 21.7049336 30.3534246"></polygon>
        <polygon id="Fill-23" fill="#88E18E" points="0.0336112 9.844375 0.0336112 17.552218 21.7119952 38.068571 25.7836992 34.213616"></polygon>
    </g>
</svg>